# xmcd
#
# Track frame offsets: 
#        150
#        14585
#        35443
#        51982
#        67214
#        84116
#        104619
#        120355
#        134444
#        150766
#        165883
#        182420
#        198945
#        216891
#        231449
#        246647
#
# Disc length: 3487 seconds
#
# Revision: 2
# Processed by: cddbd v1.5.2PL0 Copyright (c) Steve Scherf et al.
# Submitted via: ExactAudioCopyFreeDBPlugin 1.0
#
DISCID=d60d9d10
DTITLE=Various Artist - Kneipen Hits: Deutsche Party
DYEAR=2006
DGENRE=Schlager
TTITLE0=Howard Carpendale - Tür an Tür mit Alice
TTITLE1=Sound Convoy - Hey, Baby (Uh, Ah)
TTITLE2=Lollies - Wahnsinn (...Hölle, Hölle, Hölle)
TTITLE3=Mike Fender - Verliebt verlor'n in Amarillo 1999
TTITLE4=Guildo Horn and die Orthopädischen Strümpfe - Guildo hat Euch li
TTITLE4=eb!
TTITLE5=V.I.P. - Ich war noch niemals in New York
TTITLE6=Erste Allgemeine Verunsicherung - 3 weiße Tauben
TTITLE7=Purple Schulz - Verliebte Jungs
TTITLE8=Howard Carpendale - Hello Again
TTITLE9=Wolfgang Fierek - Resi, i hol di mit mei'm Traktor ab
TTITLE10=Cordalis - Viva la noche '97
TTITLE11=Roberto Blanco and Captain Jack - Ein bisschen Spaß muss sein 2
TTITLE11=004
TTITLE12=Marco Kloss - Erna Schabulski
TTITLE13=Leo Colonia - 75 D
TTITLE14=Almklausi - Eine Insel im Süden
TTITLE15=Partystars United - Gute Freunde kann niemand trennen
EXTD=
EXTT0=
EXTT1=
EXTT2=
EXTT3=
EXTT4=
EXTT5=
EXTT6=
EXTT7=
EXTT8=
EXTT9=
EXTT10=
EXTT11=
EXTT12=
EXTT13=
EXTT14=
EXTT15=
PLAYORDER=
